<mxfile host="app.diagrams.net" modified="2024-02-29T14:30:20.149Z" agent="Mozilla/5.0 (Windows NT 10.0; Win64; x64) AppleWebKit/537.36 (KHTML, like Gecko) Chrome/122.0.0.0 Safari/537.36" version="23.1.7" etag="5DS0ynL1rOtBOs8639jI" type="github">
  <diagram name="PÃ¡gina-1" id="wcZrrQS_FpAPLS0RQveL">
    <mxGraphModel>
      <root>
        <mxCell id="0" />
        <mxCell id="1" parent="0" />
      </root>
    </mxGraphModel>
  </diagram>
</mxfile>
